<svg width="209" height="22" viewBox="0 0 209 22" fill="none" xmlns="http://www.w3.org/2000/svg">
<g clip-path="url(#clip0_0_84)">
<path d="M44.1575 2.75C44.1575 1.23122 45.4028 0 46.9391 0H74.7552C76.2914 0 77.5368 1.23122 77.5368 2.75V19.25C77.5368 20.7688 76.2914 22 74.7552 22H46.9391C45.4028 22 44.1575 20.7688 44.1575 19.25V2.75Z" fill="#D8E3F3"/>
<path d="M72.8847 6.89579H71.136C70.6073 6.89579 70.2007 7.05661 69.9567 7.57927L66.622 15.0975H68.9807C68.9807 15.0975 69.3873 14.0924 69.4687 13.8512C69.7127 13.8512 72.0307 13.8512 72.356 13.8512C72.4373 14.1326 72.6407 15.0573 72.6407 15.0573H74.7553L72.8847 6.89579ZM70.1193 12.1626C70.3227 11.6801 71.014 9.87094 71.014 9.87094C71.014 9.91114 71.2173 9.38848 71.2987 9.10705L71.4613 9.83073C71.4613 9.83073 71.9087 11.8008 71.99 12.2028H70.1193V12.1626Z" fill="#3362AB"/>
<path d="M66.7844 12.406C66.7844 14.0946 65.239 15.2204 62.8397 15.2204C61.823 15.2204 60.847 15.0193 60.3184 14.7781L60.6437 12.9287L60.9284 13.0493C61.6604 13.371 62.1484 13.4916 63.043 13.4916C63.6937 13.4916 64.385 13.2503 64.385 12.6875C64.385 12.3256 64.1004 12.0844 63.2057 11.6824C62.3517 11.2803 61.213 10.637 61.213 9.47111C61.213 7.86292 62.799 6.7774 65.0357 6.7774C65.8897 6.7774 66.6217 6.93822 67.069 7.13924L66.7437 8.90824L66.581 8.74742C66.1744 8.58661 65.6457 8.42579 64.873 8.42579C64.019 8.46599 63.6124 8.82783 63.6124 9.14947C63.6124 9.51131 64.1004 9.79275 64.873 10.1546C66.1744 10.7577 66.7844 11.4411 66.7844 12.406Z" fill="#3362AB"/>
<path d="M46.939 6.97784L46.9797 6.81703H50.477C50.965 6.81703 51.331 6.97784 51.453 7.5005L52.2257 11.1189C51.453 9.1891 49.6637 7.62112 46.939 6.97784Z" fill="#F9B50B"/>
<path d="M57.1464 6.89784L53.6084 15.0594H51.2091L49.1757 8.22459C50.6397 9.1493 51.8597 10.5967 52.3071 11.6018L52.5511 12.4461L54.7471 6.85763H57.1464V6.89784Z" fill="#3362AB"/>
<path d="M58.0818 6.85763H60.3184L58.8951 15.0594H56.6584L58.0818 6.85763Z" fill="#3362AB"/>
</g>
<g clip-path="url(#clip1_0_84)">
<path d="M0 2.75C0 1.23122 1.27367 0 2.84483 0H31.2931C32.8642 0 34.1379 1.23122 34.1379 2.75V19.25C34.1379 20.7688 32.8642 22 31.2931 22H2.84482C1.27367 22 0 20.7688 0 19.25V2.75Z" fill="#CCDEFF"/>
<path d="M7.66027 7.91835C7.3037 7.68139 6.8384 7.56262 6.26437 7.56262H4.04206C3.86609 7.56262 3.76887 7.6477 3.7504 7.81768L2.84765 13.2956C2.83827 13.3494 2.8522 13.3986 2.8893 13.4433C2.92619 13.4881 2.9726 13.5104 3.02817 13.5104H4.08375C4.2689 13.5104 4.37066 13.4255 4.38934 13.2554L4.63931 11.7785C4.64844 11.7069 4.681 11.6488 4.73657 11.6039C4.7921 11.5592 4.86156 11.5299 4.9449 11.5166C5.02823 11.5033 5.10682 11.4965 5.18103 11.4965C5.25502 11.4965 5.34295 11.5011 5.44496 11.51C5.54673 11.5189 5.6116 11.5233 5.63941 11.5233C6.43568 11.5233 7.06069 11.3064 7.51448 10.8721C7.96807 10.4381 8.19511 9.83623 8.19511 9.06625C8.19511 8.53816 8.01668 8.15555 7.66027 7.91823V7.91835ZM6.51447 9.56319C6.46803 9.87653 6.3478 10.0823 6.15336 10.1808C5.95887 10.2794 5.6811 10.3285 5.32002 10.3285L4.86164 10.3419L5.09782 8.90521C5.11624 8.80684 5.1764 8.7576 5.27833 8.7576H5.54231C5.91251 8.7576 6.18121 8.80918 6.34788 8.91194C6.51447 9.01495 6.57005 9.23209 6.51447 9.56319Z" fill="#003087"/>
<path d="M31.1122 7.56262H30.0845C29.9824 7.56262 29.9222 7.61187 29.9039 7.7104L29.0011 13.2958L28.9871 13.3227C28.9871 13.3676 29.0057 13.4099 29.0428 13.4502C29.0796 13.4905 29.1261 13.5106 29.1816 13.5106H30.0985C30.2741 13.5106 30.3714 13.4257 30.3902 13.2556L31.2929 7.76412V7.75079C31.2929 7.62541 31.2325 7.56279 31.1122 7.56279V7.56262Z" fill="#009CDE"/>
<path d="M18.695 9.72563C18.695 9.68098 18.6764 9.63838 18.6396 9.5982C18.6025 9.55794 18.5608 9.53767 18.5146 9.53767H17.4451C17.3431 9.53767 17.2597 9.58265 17.195 9.67191L15.7228 11.7665L15.1117 9.75255C15.0651 9.60945 14.9634 9.53767 14.8061 9.53767H13.7642C13.7178 9.53767 13.6762 9.55786 13.6394 9.5982C13.6022 9.63838 13.5838 9.68106 13.5838 9.72563C13.5838 9.74365 13.6741 10.0076 13.8546 10.5178C14.0351 11.0282 14.2296 11.5787 14.438 12.1695C14.6463 12.7601 14.755 13.0736 14.7643 13.1091C14.005 14.1118 13.6255 14.6488 13.6255 14.7203C13.6255 14.8368 13.6856 14.8949 13.8061 14.8949H14.8755C14.9773 14.8949 15.0606 14.8502 15.1256 14.7607L18.6674 9.81957C18.6858 9.80184 18.695 9.77065 18.695 9.72559V9.72563Z" fill="#003087"/>
<path d="M28.6547 9.53576H27.599C27.4693 9.53576 27.3908 9.6835 27.363 9.97894C27.122 9.621 26.6825 9.44178 26.0434 9.44178C25.3768 9.44178 24.8095 9.6835 24.342 10.1669C23.8744 10.6502 23.6406 11.2188 23.6406 11.8721C23.6406 12.4003 23.8004 12.821 24.1197 13.1342C24.4392 13.4477 24.8674 13.6041 25.4046 13.6041C25.6731 13.6041 25.9463 13.5503 26.224 13.443C26.5018 13.3356 26.7192 13.1924 26.8769 13.0133C26.8769 13.0223 26.8675 13.0625 26.8492 13.134C26.8305 13.2058 26.8213 13.2597 26.8213 13.2952C26.8213 13.4385 26.8814 13.51 27.0019 13.51H27.9604C28.1361 13.51 28.2381 13.4251 28.2657 13.2549L28.8353 9.75056C28.8444 9.6968 28.8306 9.64767 28.7936 9.60286C28.7564 9.55821 28.7102 9.53576 28.6547 9.53576ZM26.8421 12.1809C26.606 12.4047 26.3212 12.5165 25.9879 12.5165C25.7193 12.5165 25.5019 12.445 25.3351 12.3017C25.1683 12.1588 25.085 11.9619 25.085 11.711C25.085 11.38 25.2008 11.1001 25.4324 10.8718C25.6635 10.6436 25.9509 10.5295 26.2935 10.5295C26.5525 10.5295 26.7678 10.6033 26.9393 10.7509C27.1104 10.8987 27.1964 11.1023 27.1964 11.362C27.1963 11.6842 27.0782 11.9572 26.8421 12.1809Z" fill="#009CDE"/>
<path d="M12.876 9.53576H11.8204C11.6906 9.53576 11.612 9.6835 11.5842 9.97894C11.3342 9.621 10.8943 9.44178 10.2647 9.44178C9.59799 9.44178 9.03077 9.6835 8.56322 10.1669C8.09555 10.6502 7.86184 11.2188 7.86184 11.8721C7.86184 12.4003 8.02159 12.821 8.34106 13.1342C8.66052 13.4477 9.08867 13.6041 9.6258 13.6041C9.88494 13.6041 10.1536 13.5503 10.4314 13.443C10.7091 13.3356 10.9314 13.1924 11.0981 13.0133C11.0609 13.1207 11.0425 13.2147 11.0425 13.2952C11.0425 13.4385 11.1026 13.51 11.223 13.51H12.1814C12.3572 13.51 12.4592 13.4251 12.487 13.2549L13.0564 9.75056C13.0656 9.6968 13.0517 9.64767 13.0148 9.60286C12.9777 9.55821 12.9315 9.53576 12.876 9.53576ZM11.0634 12.1875C10.8272 12.4071 10.5378 12.5165 10.1954 12.5165C9.92667 12.5165 9.71139 12.445 9.54947 12.3017C9.38734 12.1588 9.30638 11.9619 9.30638 11.711C9.30638 11.38 9.42206 11.1001 9.65365 10.8718C9.88498 10.6436 10.1721 10.5294 10.5148 10.5294C10.7739 10.5294 10.9892 10.6033 11.1607 10.7509C11.3319 10.8987 11.4176 11.1023 11.4176 11.362C11.4176 11.6932 11.2995 11.9685 11.0634 12.1875Z" fill="#003087"/>
<path d="M23.4387 7.91835C23.0821 7.68139 22.617 7.56262 22.0428 7.56262H19.8344C19.6491 7.56262 19.5472 7.6477 19.5288 7.81768L18.626 13.2956C18.6166 13.3494 18.6305 13.3986 18.6677 13.4433C18.7044 13.4881 18.7509 13.5104 18.8065 13.5104H19.9454C20.0565 13.5104 20.1305 13.4523 20.1677 13.3359L20.4177 11.7785C20.4269 11.7069 20.4593 11.6488 20.5149 11.6039C20.5705 11.5592 20.6399 11.5299 20.7233 11.5166C20.8066 11.5033 20.8851 11.4965 20.9594 11.4965C21.0334 11.4965 21.1213 11.5011 21.2232 11.51C21.325 11.5189 21.3901 11.5233 21.4177 11.5233C22.2141 11.5233 22.839 11.3064 23.2928 10.8721C23.7466 10.4381 23.9734 9.83623 23.9734 9.06625C23.9734 8.53816 23.7951 8.15551 23.4387 7.91823V7.91835ZM22.0151 10.127C21.8113 10.2613 21.5057 10.3284 21.0984 10.3284L20.6538 10.3418L20.89 8.90513C20.9083 8.8068 20.9685 8.75747 21.0705 8.75747H21.3204C21.5242 8.75747 21.6862 8.76646 21.8067 8.78431C21.9269 8.80229 22.0428 8.85814 22.1539 8.95208C22.2651 9.0461 22.3206 9.18268 22.3206 9.36161C22.3206 9.73769 22.2186 9.99267 22.0151 10.127Z" fill="#009CDE"/>
</g>
<g clip-path="url(#clip2_0_84)">
<path d="M87.5563 2.75C87.5563 1.23122 88.8017 0 90.3379 0H118.154C119.69 0 120.936 1.23122 120.936 2.75V19.25C120.936 20.7688 119.69 22 118.154 22H90.3379C88.8017 22 87.5563 20.7688 87.5563 19.25V2.75Z" fill="#CCEFFF"/>
<path d="M107.897 17.4883H100.596V4.51614H107.897V17.4883Z" fill="#6C6BBD"/>
<path d="M101.063 11C101.063 8.36855 102.31 6.02452 104.25 4.51393C102.831 3.40932 101.04 2.75001 99.0934 2.75001C94.4852 2.75001 90.7496 6.4436 90.7496 11C90.7496 15.5564 94.4852 19.25 99.0934 19.25C101.04 19.25 102.831 18.5907 104.25 17.4861C102.31 15.9755 101.063 13.6315 101.063 11Z" fill="#EB001B"/>
<path d="M117.743 11C117.743 15.5564 114.008 19.25 109.399 19.25C107.453 19.25 105.662 18.5907 104.242 17.4861C106.183 15.9755 107.43 13.6315 107.43 11C107.43 8.36855 106.183 6.02452 104.242 4.51393C105.662 3.40932 107.453 2.75001 109.399 2.75001C114.008 2.75001 117.743 6.4436 117.743 11Z" fill="#0099DF"/>
</g>
<g clip-path="url(#clip3_0_84)">
<path d="M130.955 2.75C130.955 1.23122 132.229 0 133.8 0H162.248C163.819 0 165.093 1.23122 165.093 2.75V19.25C165.093 20.7688 163.819 22 162.248 22H133.8C132.229 22 130.955 20.7688 130.955 19.25V2.75Z" fill="#FCE0CF"/>
<path d="M151.281 10.9858C151.284 10.3948 151.055 9.80286 150.593 9.35681C150.131 8.90984 149.517 8.68841 148.905 8.69197C148.902 8.69197 148.899 8.69178 148.896 8.69178C147.565 8.69178 146.51 9.71171 146.51 10.9982C146.51 12.272 147.578 13.3045 148.896 13.3045C150.227 13.3045 151.282 12.2844 151.282 10.9982C151.282 10.994 151.281 10.99 151.281 10.9858Z" fill="#F26E21"/>
<path d="M146.067 11.9742C145.71 12.3193 145.381 12.4542 145.026 12.4614C144.163 12.454 143.528 11.8357 143.528 10.9542C143.528 10.5105 143.702 10.1468 143.977 9.83611C144.235 9.59917 144.568 9.44607 144.95 9.44607C145.363 9.44607 145.684 9.57911 146.051 9.93395V8.91383C145.684 8.73651 145.363 8.64775 144.95 8.64775C144.367 8.68805 143.817 8.91586 143.395 9.27358C143.274 9.37933 143.157 9.49606 143.058 9.62965C142.75 10.0157 142.564 10.4884 142.564 10.9987C142.564 12.2848 143.62 13.2606 144.95 13.2606C144.957 13.2606 144.963 13.26 144.969 13.26C144.978 13.2601 144.987 13.2606 144.996 13.2606C145.363 13.2606 145.684 13.1721 146.097 12.9946L146.067 11.9742C146.051 11.9892 146.082 12.0031 146.067 12.0173V11.9742Z" fill="#2B2B2B"/>
<path d="M154.294 9.28335L153.255 11.753L152.062 8.82534H151.098L152.979 13.3052H153.484L155.457 8.82534H154.494L154.294 9.28335Z" fill="#2B2B2B"/>
<path d="M155.825 10.777V13.1723H158.303H158.348V12.4624H157.568H156.742V11.6642V11.2651H158.303V10.5109H156.742V9.5795H158.348V8.82534H155.825V10.777Z" fill="#2B2B2B"/>
<path d="M135.085 8.82632H133.8V13.1733H135.085C135.773 13.1733 136.278 12.9957 136.691 12.6852C137.195 12.286 137.517 11.6652 137.517 11C137.517 9.71339 136.553 8.82632 135.085 8.82632ZM136.14 12.1088C135.865 12.3304 135.498 12.4634 134.947 12.4634H134.672V9.58041H134.901C135.452 9.58041 135.819 9.66911 136.094 9.93513C136.415 10.2011 136.599 10.6005 136.599 10.9998C136.645 11.399 136.461 11.8424 136.14 12.1088Z" fill="#2B2B2B"/>
<path d="M138.802 8.82534H137.93V13.1722H138.802V8.82534Z" fill="#2B2B2B"/>
<path d="M141.004 10.5114C140.454 10.334 140.316 10.2009 140.316 9.97918C140.316 9.71304 140.591 9.4913 140.958 9.4913C141.234 9.4913 141.463 9.58005 141.692 9.8462L142.151 9.26962C141.784 8.95901 141.325 8.7818 140.821 8.7818C140.04 8.7818 139.398 9.31409 139.398 10.0235C139.398 10.6446 139.674 10.9107 140.499 11.2212C140.867 11.3541 141.004 11.3986 141.096 11.4873C141.279 11.5759 141.371 11.7535 141.371 11.9307C141.371 12.2856 141.096 12.5518 140.683 12.5518C140.27 12.5518 139.903 12.33 139.719 11.9751L139.169 12.5074C139.582 13.084 140.086 13.3501 140.729 13.3501C141.646 13.3501 142.289 12.7735 142.289 11.9307C142.289 11.1768 142.014 10.8663 141.004 10.5114Z" fill="#2B2B2B"/>
<path d="M160.826 11.3535C161.515 11.2207 161.882 10.7769 161.882 10.1118C161.882 9.31353 161.285 8.82534 160.276 8.82534H158.945V13.1723H159.817V11.4423H159.955L161.193 13.1723H162.249L160.826 11.3535ZM160.092 10.8212H159.817V9.49074H160.092C160.643 9.49074 160.964 9.71242 160.964 10.1563C160.964 10.5996 160.643 10.8212 160.092 10.8212Z" fill="#2B2B2B"/>
</g>
<g clip-path="url(#clip4_0_84)">
<path d="M175.113 2.75C175.113 1.23122 176.358 0 177.894 0H205.71C207.247 0 208.492 1.23122 208.492 2.75V19.25C208.492 20.7688 207.247 22 205.71 22H177.894C176.358 22 175.113 20.7688 175.113 19.25V2.75Z" fill="#D4DEF7"/>
<path d="M199.746 6.78614L199.1 8.19373H200.395L199.746 6.78614ZM192.293 7.6584C192.415 7.60127 192.486 7.47702 192.486 7.32272C192.486 7.17151 192.411 7.062 192.289 7.01054C192.178 6.9535 192.008 6.94691 191.844 6.94691H190.689V7.73119H191.829C192.011 7.73123 192.164 7.72882 192.293 7.6584ZM177.487 6.78614L176.849 8.19373H178.13L177.487 6.78614ZM207.217 15.8035H205.405V15.0462H207.21C207.388 15.0462 207.514 15.0251 207.589 14.9587C207.661 14.8995 207.701 14.8159 207.7 14.7285C207.7 14.6255 207.655 14.5438 207.585 14.4949C207.517 14.441 207.418 14.4165 207.255 14.4165C206.374 14.3896 205.275 14.4409 205.275 13.3234C205.275 12.8112 205.636 12.272 206.621 12.272H208.49V11.5693H206.753C206.229 11.5693 205.849 11.6822 205.579 11.8578V11.5693H203.01C202.6 11.5693 202.118 11.6608 201.89 11.8578V11.5693H197.302V11.8578C196.937 11.6209 196.321 11.5693 196.037 11.5693H193.011V11.8578C192.723 11.6062 192.08 11.5693 191.689 11.5693H188.303L187.528 12.3235L186.802 11.5693H181.744V16.4976H186.707L187.505 15.7313L188.257 16.4976L191.316 16.5V15.3407H191.617C192.023 15.3465 192.502 15.3317 192.924 15.1675V16.4974H195.448V15.2129H195.569C195.725 15.2129 195.74 15.2187 195.74 15.3583V16.4971H203.405C203.892 16.4971 204.401 16.3852 204.682 16.1817V16.4971H207.114C207.62 16.4971 208.114 16.4333 208.49 16.27V15.352C208.262 15.6518 207.818 15.8037 207.217 15.8037L207.217 15.8035ZM191.657 14.6399H190.487V15.8245H188.663L187.507 14.6554L186.307 15.8245H182.59V12.2928H186.364L187.518 13.4505L188.712 12.2928H191.71C192.455 12.2928 193.291 12.4783 193.291 13.4563C193.291 14.4374 192.478 14.6399 191.657 14.6399ZM197.288 14.4797C197.42 14.6521 197.439 14.8131 197.443 15.1244V15.8245H196.501V15.3827C196.501 15.1702 196.524 14.8556 196.349 14.6914C196.212 14.5649 196.003 14.5347 195.661 14.5347H194.658V15.8245H193.715V12.2928H195.881C196.357 12.2928 196.703 12.3118 197.011 12.4595C197.307 12.6204 197.493 12.8409 197.493 13.2437C197.493 13.8074 197.075 14.0949 196.828 14.1833C197.037 14.2526 197.207 14.3769 197.288 14.4797ZM201.164 13.0232H198.966V13.6652H201.11V14.3858H198.966V15.0885L201.164 15.0916V15.8245H198.032V12.2928H201.164V13.0232ZM203.575 15.8244H201.747V15.0671H203.568C203.746 15.0671 203.872 15.0459 203.951 14.9796C204.015 14.925 204.062 14.8456 204.062 14.7494C204.062 14.6464 204.012 14.5647 203.947 14.5157C203.876 14.4619 203.776 14.4375 203.613 14.4375C202.736 14.4104 201.637 14.4618 201.637 13.3443C201.637 12.832 201.995 12.2928 202.978 12.2928H204.86V13.0444H203.138C202.967 13.0444 202.857 13.0503 202.762 13.1084C202.659 13.1656 202.621 13.2504 202.621 13.3623C202.621 13.4955 202.709 13.5862 202.827 13.6254C202.926 13.6564 203.032 13.6654 203.192 13.6654L203.697 13.6778C204.206 13.6888 204.556 13.7682 204.768 13.9618C204.951 14.1318 205.049 14.3465 205.049 14.71C205.049 15.4697 204.521 15.8244 203.575 15.8244ZM196.297 13.0802C196.184 13.0196 196.017 13.0164 195.85 13.0164H194.694V13.8095H195.834C196.017 13.8095 196.172 13.8037 196.297 13.7367C196.419 13.6706 196.492 13.5488 196.492 13.3978C196.492 13.2467 196.419 13.1374 196.297 13.0802ZM206.782 13.0163C206.611 13.0163 206.497 13.0221 206.402 13.0801C206.303 13.1374 206.265 13.2222 206.265 13.3342C206.265 13.4673 206.348 13.558 206.47 13.5973C206.569 13.6283 206.675 13.6373 206.832 13.6373L207.34 13.6495C207.853 13.6609 208.196 13.7403 208.405 13.9339C208.443 13.9607 208.466 13.9909 208.492 14.0212V13.0164H206.782L206.782 13.0163ZM191.69 13.0163H190.466V13.9158H191.679C192.04 13.9158 192.264 13.7548 192.264 13.4493C192.264 13.1405 192.029 13.0163 191.69 13.0163ZM183.524 13.0163V13.6584H185.584V14.379H183.524V15.0816H185.831L186.903 14.0455L185.877 13.0163H183.524ZM189.548 15.486V12.6546L188.108 14.0475L189.548 15.486ZM183.603 9.81575V10.4243H191.443L191.439 9.13692H191.591C191.697 9.14026 191.728 9.14906 191.728 9.30681V10.4243H195.783V10.1246C196.11 10.2822 196.618 10.4243 197.288 10.4243H198.993L199.358 9.64008H200.168L200.525 10.4243H203.812V9.67936L204.31 10.4243H206.944V5.5H204.337V6.08157L203.972 5.5H201.297V6.08157L200.962 5.5H197.348C196.744 5.5 196.212 5.57592 195.783 5.78755V5.5H193.289V5.78755C193.016 5.56942 192.643 5.5 192.229 5.5H183.119L182.508 6.77192L181.881 5.5H179.011V6.08157L178.696 5.5H176.249L175.113 7.84138V9.71423L176.793 6.18336H178.187L179.783 9.52635V6.18336H181.315L182.543 8.57861L183.671 6.18336H185.233V9.71423H184.271L184.268 6.94892L182.907 9.71423H182.083L180.719 6.94647V9.71423H178.81L178.45 8.92666H176.496L176.132 9.71423H175.113V10.4246H176.716L177.078 9.64028H177.887L178.247 10.4246H181.402V9.82491L181.684 10.427H183.321L183.603 9.81587L183.603 9.81575ZM195.957 6.59493C196.26 6.31312 196.735 6.18316 197.382 6.18316H198.29V6.93972H197.401C197.058 6.93972 196.865 6.98552 196.679 7.14894C196.519 7.29757 196.409 7.57861 196.409 7.94868C196.409 8.32698 196.493 8.5997 196.667 8.77787C196.811 8.91759 197.074 8.95997 197.321 8.95997H197.742L199.065 6.18328H200.471L202.06 9.52294V6.18332H203.488L205.138 8.64237V6.18332H206.099V9.71407H204.769L202.991 7.06401V9.71407H201.079L200.714 8.9265H198.765L198.411 9.71407H197.313C196.857 9.71407 196.279 9.62337 195.952 9.32352C195.622 9.02376 195.451 8.61766 195.451 7.97563C195.451 7.45191 195.553 6.97322 195.957 6.59493ZM194.027 6.1832H194.984V9.71407H194.027V6.1832ZM189.71 6.1832H191.868C192.347 6.1832 192.701 6.19465 193.004 6.35233C193.301 6.51004 193.479 6.74031 193.479 7.13407C193.479 7.69708 193.061 7.98789 192.818 8.07526C193.023 8.14556 193.199 8.26973 193.282 8.37257C193.415 8.5482 193.438 8.70508 193.438 9.02039V9.71403H192.491L192.488 9.26877C192.488 9.05626 192.51 8.75071 192.34 8.58094C192.203 8.45681 191.993 8.42978 191.656 8.42978H190.648V9.71407H189.71L189.71 6.1832ZM185.927 6.1832H189.062V6.91847H186.865V7.55491H189.009V8.27869H186.865V8.98383H189.062V9.71403H185.927V6.1832Z" fill="#2557D6"/>
</g>
<defs>
<clipPath id="clip0_0_84">
<rect width="33.3141" height="21.957" fill="white" transform="translate(44.1575) scale(1.00196)"/>
</clipPath>
<clipPath id="clip1_0_84">
<rect width="34.0712" height="21.957" fill="white" transform="scale(1.00196)"/>
</clipPath>
<clipPath id="clip2_0_84">
<rect width="33.3141" height="21.957" fill="white" transform="translate(87.5563) scale(1.00196)"/>
</clipPath>
<clipPath id="clip3_0_84">
<rect width="34.0712" height="21.957" fill="white" transform="translate(130.955) scale(1.00196)"/>
</clipPath>
<clipPath id="clip4_0_84">
<rect width="33.3141" height="21.957" fill="white" transform="translate(175.113) scale(1.00196)"/>
</clipPath>
</defs>
</svg>
