<svg width="30" height="30" viewBox="0 0 30 30" fill="none" xmlns="http://www.w3.org/2000/svg">
<path d="M15 2.49991C8.1075 2.49991 2.5 8.10741 2.5 14.9999V20.1787C2.5 21.4587 3.62125 22.4999 5 22.4999H6.25C6.58152 22.4999 6.89946 22.3682 7.13388 22.1338C7.3683 21.8994 7.5 21.5814 7.5 21.2499V14.8212C7.5 14.4896 7.3683 14.1717 7.13388 13.9373C6.89946 13.7029 6.58152 13.5712 6.25 13.5712H5.115C5.81 8.73366 9.9725 4.99991 15 4.99991C20.0275 4.99991 24.19 8.73366 24.885 13.5712H23.75C23.4185 13.5712 23.1005 13.7029 22.8661 13.9373C22.6317 14.1717 22.5 14.4896 22.5 14.8212V22.4999C22.5 23.8787 21.3787 24.9999 20 24.9999H17.5V23.7499H12.5V27.4999H20C22.7575 27.4999 25 25.2574 25 22.4999C26.3788 22.4999 27.5 21.4587 27.5 20.1787V14.9999C27.5 8.10741 21.8925 2.49991 15 2.49991Z" fill="white"/>
</svg>
