<svg width="20" height="20" viewBox="0 0 20 20" fill="none" xmlns="http://www.w3.org/2000/svg">
<path d="M17.1054 2.27686H2.89454C2.55278 2.27686 2.27667 2.55296 2.27667 2.89472V17.1056C2.27667 17.4473 2.55278 17.7234 2.89454 17.7234H17.1054C17.4471 17.7234 17.7233 17.4473 17.7233 17.1056V2.89472C17.7233 2.55296 17.4471 2.27686 17.1054 2.27686ZM15.3213 6.78533H14.0875C13.1202 6.78533 12.9329 7.24486 12.9329 7.92065V9.40932H15.2421L14.9409 11.7398H12.9329V17.7234H10.5251V11.7417H8.5113V9.40932H10.5251V7.69088C10.5251 5.69634 11.7435 4.60929 13.5237 4.60929C14.3771 4.60929 15.1089 4.67301 15.3232 4.70197V6.78533H15.3213Z" fill="white"/>
</svg>
