<svg width="25" height="25" viewBox="0 0 25 25" fill="none" xmlns="http://www.w3.org/2000/svg">
<path d="M14.5834 20.8332C15.1359 20.8332 15.6658 20.6137 16.0565 20.223C16.4472 19.8323 16.6667 19.3024 16.6667 18.7498C16.6667 18.1973 16.4472 17.6674 16.0565 17.2767C15.6658 16.886 15.1359 16.6665 14.5834 16.6665C14.0308 16.6665 13.5009 16.886 13.1102 17.2767C12.7195 17.6674 12.5 18.1973 12.5 18.7498C12.5 19.3024 12.7195 19.8323 13.1102 20.223C13.5009 20.6137 14.0308 20.8332 14.5834 20.8332ZM7.29168 20.8332C7.84422 20.8332 8.37412 20.6137 8.76482 20.223C9.15552 19.8323 9.37502 19.3024 9.37502 18.7498C9.37502 18.1973 9.15552 17.6674 8.76482 17.2767C8.37412 16.886 7.84422 16.6665 7.29168 16.6665C6.73915 16.6665 6.20925 16.886 5.81854 17.2767C5.42784 17.6674 5.20835 18.1973 5.20835 18.7498C5.20835 19.3024 5.42784 19.8323 5.81854 20.223C6.20925 20.6137 6.73915 20.8332 7.29168 20.8332ZM20.8729 6.16963C21.133 6.16124 21.3796 6.05204 21.5605 5.86513C21.7415 5.67822 21.8427 5.42824 21.8427 5.16807C21.8427 4.90789 21.7415 4.65791 21.5605 4.471C21.3796 4.28409 21.133 4.17489 20.8729 4.1665H19.674C18.7344 4.1665 17.9219 4.81859 17.7177 5.73525L16.4125 11.6123C16.2083 12.529 15.3959 13.1811 14.4563 13.1811H6.63127L5.12918 7.17067H14.8636C15.1212 7.15892 15.3643 7.04831 15.5424 6.86187C15.7206 6.67543 15.82 6.42749 15.82 6.16963C15.82 5.91177 15.7206 5.66383 15.5424 5.47739C15.3643 5.29094 15.1212 5.18034 14.8636 5.16859H5.12918C4.82467 5.1685 4.52414 5.23784 4.25045 5.37133C3.97676 5.50483 3.7371 5.69896 3.5497 5.93899C3.3623 6.17901 3.23209 6.4586 3.16897 6.7565C3.10585 7.0544 3.11148 7.36277 3.18543 7.65817L4.68752 13.6665C4.7958 14.1 5.04594 14.4849 5.39815 14.7599C5.75036 15.0349 6.18441 15.1843 6.63127 15.1842H14.4563C15.3679 15.1843 16.2524 14.8735 16.9635 14.3031C17.6747 13.7326 18.17 12.9367 18.3677 12.0467L19.674 6.16963H20.8729Z" fill="black"/>
</svg>
