<svg width="13" height="12" viewBox="0 0 13 12" fill="none" xmlns="http://www.w3.org/2000/svg">
<path d="M6.21125 0.0562615C6.24982 -0.0190551 6.35746 -0.0190554 6.39602 0.0562612L8.30602 3.78645C8.3211 3.81589 8.34931 3.83638 8.38197 3.84162L12.5198 4.50545C12.6034 4.51886 12.6366 4.62123 12.5769 4.68118L9.61951 7.65039C9.59617 7.67383 9.58539 7.70699 9.5905 7.73967L10.2378 11.8801C10.2509 11.9637 10.1638 12.027 10.0883 11.9887L6.35057 10.0936C6.32107 10.0787 6.2862 10.0787 6.2567 10.0936L2.51893 11.9887C2.44346 12.027 2.35637 11.9637 2.36944 11.8801L3.01677 7.73967C3.02188 7.70699 3.0111 7.67383 2.98776 7.65039L0.0303666 4.68118C-0.0293465 4.62123 0.00391625 4.51886 0.0874638 4.50545L4.2253 3.84162C4.25797 3.83638 4.28617 3.81589 4.30125 3.78645L6.21125 0.0562615Z" fill="#E9A426"/>
</svg>
